<?xml version="1.0" encoding="utf-8"?>
<!-- Generator: Adobe Illustrator 19.1.0, SVG Export Plug-In . SVG Version: 6.00 Build 0)  -->
<svg version="1.1" id="Layer_1" xmlns="http://www.w3.org/2000/svg" xmlns:xlink="http://www.w3.org/1999/xlink" x="0px" y="0px"
	 viewBox="0 0 110 110" style="enable-background:new 0 0 110 110;" xml:space="preserve">
<style type="text/css">
	.st0{opacity:0.2;fill:#23A9E1;}
	.st1{fill:#65C6BB;}
	.st2{fill:#23A9E1;}
	.st3{fill:#183A63;}
	.st4{fill:#FCD0A5;}
	.st5{fill:#4297D3;}
	.st6{fill:#2A1D1D;}
	.st7{fill:#F0B98A;}
	.st8{fill:#F15C57;}
	.st9{fill:#F2F4F6;}
	.st10{fill:#DFEAEE;}
	.st11{fill:#764830;}
	.st12{fill:#5E3827;}
	.st13{fill:#156299;}
	.st14{fill:#3E8BC8;}
	.st15{opacity:0.2;fill:#25A6DF;}
	.st16{fill:#25A6DF;}
	.st17{fill:#66C6BB;}
	.st18{fill:#1A3B63;}
	.st19{fill:#FACEA4;}
	.st20{fill:#4296D2;}
	.st21{fill:#2B1C1D;}
	.st22{fill:#EFB888;}
	.st23{fill:#F15E57;}
	.st24{fill:#F2F4F5;}
	.st25{fill:#DDE8ED;}
	.st26{fill:none;}
</style>
<g>
	<circle class="st0" cx="55" cy="55" r="53.7"/>
	<g>
		<path class="st9" d="M40.1,49h46.2V61H40.1V49z"/>
		<path class="st10" d="M83.3,49h3V61h-3V49z"/>
		<path class="st8" d="M89,61h-2.7V49H89c0.7,0,1.2,0.5,1.2,1.2v9.7C90.2,60.5,89.6,61,89,61z"/>
		<path class="st2" d="M40.1,49V61H19.8V49H40.1z"/>
		<path class="st8" d="M55,73.7c-4,0-7.7-1.3-10.8-3.4c-0.2-0.2-0.3-0.5-0.1-0.7l25.5-25.5c0.2-0.2,0.5-0.2,0.7,0.1
			c1,1.4,1.8,3,2.4,4.7h5.9c-0.9-3.4-2.5-6.5-4.6-9.2c-1.1-1.4-2.4-2.7-3.8-3.8c-4.2-3.3-9.5-5.3-15.2-5.3
			c-11.4,0-20.9,7.8-23.6,18.3h5.9c2.5-7.4,9.5-12.7,17.8-12.7c4,0,7.7,1.3,10.8,3.4c0.2,0.2,0.3,0.5,0.1,0.7L40.4,65.8
			c-0.2,0.2-0.5,0.2-0.7-0.1c-1-1.4-1.8-3-2.4-4.7h-5.9c0.9,3.4,2.5,6.5,4.6,9.2c1.1,1.4,2.4,2.7,3.8,3.8c4.2,3.3,9.5,5.3,15.2,5.3
			c11.4,0,20.9-7.8,23.6-18.3h-5.9C70.2,68.4,63.2,73.7,55,73.7L55,73.7z"/>
		<g>
			<path class="st8" d="M72.8,49h5.9c-0.2-0.8-0.5-1.6-0.7-2.4h-6.1C72.1,47.3,72.5,48.1,72.8,49L72.8,49z"/>
			<path class="st8" d="M71.7,63.4h6.1c0.3-0.8,0.5-1.6,0.7-2.4h-5.9C72.5,61.9,72.1,62.7,71.7,63.4z"/>
			<g>
				<path class="st8" d="M37.2,61h-5.9c0.2,0.8,0.5,1.6,0.7,2.4h6.1C37.9,62.7,37.5,61.9,37.2,61z"/>
				<path class="st8" d="M38.3,46.6h-6.1c-0.3,0.8-0.5,1.6-0.7,2.4h5.9C37.5,48.1,37.9,47.3,38.3,46.6L38.3,46.6z"/>
			</g>
		</g>
		<path class="st3" d="M89,47.9c-3.5,0-6.6,0-9.6,0c-0.9-3.2-2.5-6.2-4.6-8.8c-1.2-1.5-2.5-2.8-4-4c-4.5-3.6-10-5.6-15.9-5.6
			c-7.1,0-14,3-18.8,8.3c-0.4,0.4-0.4,1.1,0.1,1.5c0.4,0.4,1.1,0.4,1.5-0.1c4.4-4.8,10.7-7.6,17.2-7.6c5.4,0,10.4,1.8,14.6,5.1
			c1.3,1.1,2.6,2.3,3.6,3.6c1.8,2.2,3.1,4.8,4,7.5h-3.7c-0.6-1.5-1.3-3-2.3-4.3C71,43.3,70.5,43,70.1,43c-0.5,0-0.9,0.1-1.2,0.4
			L43.4,68.9c-0.3,0.3-0.5,0.8-0.4,1.2c0,0.5,0.3,0.9,0.6,1.1c3.3,2.3,7.3,3.6,11.4,3.6c8.2,0,15.6-5.1,18.5-12.7h3.7
			c-3.1,9.6-12,16.2-22.2,16.2c-5.4,0-10.4-1.8-14.6-5.1c-1.3-1.1-2.6-2.3-3.6-3.6c-1.8-2.2-3.1-4.8-4-7.5h3.7
			c0.6,1.5,1.3,3,2.3,4.3c0.3,0.4,0.7,0.6,1.1,0.6c0.5,0,0.9-0.1,1.2-0.4l25.5-25.5c0.3-0.3,0.5-0.8,0.4-1.2c0-0.5-0.3-0.9-0.6-1.1
			c-3.3-2.4-7.3-3.6-11.4-3.6c-8.2,0-15.6,5.1-18.5,12.7h-3.7c0.6-1.8,1.4-3.6,2.4-5.2c0.3-0.5,0.2-1.2-0.3-1.5
			c-0.5-0.3-1.2-0.2-1.5,0.3c-1.2,2-2.2,4.1-2.8,6.4H19.8c-0.6,0-1.1,0.5-1.1,1.1V61c0,0.6,0.5,1.1,1.1,1.1H23
			c0.6,0,1.1-0.5,1.1-1.1c0-0.6-0.5-1.1-1.1-1.1h-2.1V50h18.2V60c-1.4,0-10.5,0-11.9,0c-0.6,0-1.1,0.5-1.1,1.1
			c0,0.6,0.5,1.1,1.1,1.1h3.4c0.9,3.2,2.5,6.2,4.6,8.8c1.2,1.5,2.5,2.8,4,4c4.5,3.6,10,5.6,15.9,5.6c11.4,0,21.3-7.5,24.4-18.3
			c0.4,0,8.3,0,9.6,0c1.2,0,2.2-1,2.2-2.2v-9.7C91.2,48.9,90.2,47.9,89,47.9L89,47.9z M40.1,64.6c-0.5-0.8-1-1.6-1.3-2.5h3.8
			L40.1,64.6z M44.7,60h-3.5V50h13.5L44.7,60z M38.8,47.9c2.8-6.4,9.1-10.6,16.2-10.6c3.4,0,6.7,1,9.6,2.8l-7.8,7.8
			C56.1,47.9,39.4,47.9,38.8,47.9L38.8,47.9z M69.9,45.4c0.5,0.8,1,1.6,1.3,2.5h-3.8L69.9,45.4z M67.5,60c-0.6,0-1.1,0.5-1.1,1.1
			s0.5,1.1,1.1,1.1h3.7c-2.8,6.4-9.1,10.6-16.2,10.6c-3.4,0-6.7-1-9.6-2.8l7.8-7.8h10c0.6,0,1.1-0.5,1.1-1.1c0-0.6-0.5-1.1-1.1-1.1
			h-7.9l9.9-9.9h20V60C83.1,60,69.3,60,67.5,60L67.5,60z M89.1,59.8c0,0.1-0.1,0.1-0.1,0.1h-1.6V50H89c0.1,0,0.1,0.1,0.1,0.1V59.8z"
			/>
	</g>
</g>
</svg>
