<?xml version="1.0" encoding="utf-8"?>
<!-- Generator: Adobe Illustrator 19.1.0, SVG Export Plug-In . SVG Version: 6.00 Build 0)  -->
<svg version="1.1" id="Layer_1" xmlns="http://www.w3.org/2000/svg" xmlns:xlink="http://www.w3.org/1999/xlink" x="0px" y="0px"
	 viewBox="0 0 110 110" style="enable-background:new 0 0 110 110;" xml:space="preserve">
<style type="text/css">
	.st0{opacity:0.2;fill:#23A9E1;}
	.st1{fill:#65C6BB;}
	.st2{fill:#23A9E1;}
	.st3{fill:#183A63;}
	.st4{fill:#FCD0A5;}
	.st5{fill:#4297D3;}
	.st6{fill:#2A1D1D;}
	.st7{fill:#F0B98A;}
	.st8{fill:#F15C57;}
	.st9{fill:#F2F4F6;}
	.st10{fill:#DFEAEE;}
	.st11{fill:#764830;}
	.st12{fill:#5E3827;}
	.st13{fill:#156299;}
	.st14{fill:#3E8BC8;}
	.st15{opacity:0.2;fill:#25A6DF;}
	.st16{fill:#25A6DF;}
	.st17{fill:#66C6BB;}
	.st18{fill:#1A3B63;}
	.st19{fill:#FACEA4;}
	.st20{fill:#4296D2;}
	.st21{fill:#2B1C1D;}
	.st22{fill:#EFB888;}
	.st23{fill:#F15E57;}
	.st24{fill:#F2F4F5;}
	.st25{fill:#DDE8ED;}
	.st26{fill:none;}
</style>
<g>
	<circle class="st0" cx="55" cy="55" r="53.7"/>
	<g>
		<g>
			<g>
				<path class="st5" d="M59.5,74.4H24c-0.6,0-1.1-0.5-1.1-1.1v-8.8h37.7v8.8C60.6,73.9,60.1,74.4,59.5,74.4z"/>
			</g>
			<g>
				<polygon class="st5" points="60.6,64.5 22.9,64.5 30.1,58.1 53.4,58.1 				"/>
			</g>
			<g>
				<path class="st3" d="M59.5,75.1H24c-1,0-1.8-0.8-1.8-1.8v-8.8c0-0.4,0.3-0.7,0.7-0.7h37.7c0.4,0,0.7,0.3,0.7,0.7v8.8
					C61.3,74.2,60.5,75.1,59.5,75.1z M23.6,65.2v8.1c0,0.2,0.2,0.4,0.4,0.4h35.5c0.2,0,0.4-0.2,0.4-0.4v-8.1H23.6z"/>
			</g>
			<g>
				<path class="st3" d="M60.6,65.2H22.9c-0.3,0-0.5-0.2-0.6-0.4c-0.1-0.3,0-0.6,0.2-0.8l7.2-6.3c0.1-0.1,0.3-0.2,0.5-0.2h23.4
					c0.2,0,0.3,0.1,0.5,0.2l7.2,6.3c0.2,0.2,0.3,0.5,0.2,0.8C61.1,65,60.9,65.2,60.6,65.2z M24.7,63.8h34l-5.6-5H30.3L24.7,63.8z"/>
			</g>
			<g>
				<path class="st3" d="M52.8,62.4H31.1c-0.4,0-0.7-0.3-0.7-0.7c0-0.4,0.3-0.7,0.7-0.7h21.7c0.4,0,0.7,0.3,0.7,0.7
					C53.5,62.1,53.2,62.4,52.8,62.4z"/>
			</g>
			<g>
				<polygon class="st1" points="33.5,58.1 32.2,45.7 37.2,44.6 37.2,38.7 46.8,38.1 46.8,42.9 52.2,43.9 51.8,56.3 49.7,61.7 
					35.6,61.7 				"/>
			</g>
			<g>
				<path class="st3" d="M49.7,62.4H35.6c-0.2,0-0.5-0.1-0.6-0.3l-2.1-3.6c0-0.1-0.1-0.2-0.1-0.3l-1.3-12.4c0-0.4,0.2-0.7,0.5-0.8
					l4.4-0.9v-5.3c0-0.4,0.3-0.7,0.6-0.7l9.6-0.7c0.2,0,0.4,0.1,0.5,0.2c0.1,0.1,0.2,0.3,0.2,0.5v4.3l4.8,0.8
					c0.3,0.1,0.6,0.4,0.6,0.7l-0.4,12.4c0,0.1,0,0.2,0,0.2L50.3,62C50.2,62.2,50,62.4,49.7,62.4z M36,61h13.2l1.9-4.9l0.3-11.6
					l-4.8-0.8c-0.3-0.1-0.6-0.3-0.6-0.7v-4.1l-8.2,0.6v5.2c0,0.3-0.2,0.6-0.6,0.7l-4.4,0.9l1.2,11.7L36,61z"/>
			</g>
			<g>
				<path class="st3" d="M45.8,62.4h-5.7c-0.3,0-0.5-0.1-0.6-0.4l-1.8-3.6c0-0.1-0.1-0.2-0.1-0.3v-2.4c0-0.4,0.3-0.7,0.7-0.7
					s0.7,0.3,0.7,0.7V58l1.6,3.1h4.7l0.7-3v-5.3c0-0.4,0.3-0.7,0.7-0.7c0.4,0,0.7,0.3,0.7,0.7v5.4c0,0,0,0.1,0,0.1l-0.8,3.6
					C46.4,62.2,46.2,62.4,45.8,62.4z"/>
			</g>
			<g>
				<path class="st3" d="M37.9,51.6c-0.3,0-0.6-0.3-0.7-0.6l-0.7-6.3c0,0,0-0.1,0-0.1v-5.9c0-0.4,0.3-0.7,0.6-0.7l9.6-0.7
					c0.2,0,0.4,0.1,0.5,0.2c0.1,0.1,0.2,0.3,0.2,0.5v4.9l-0.2,5c0,0.4-0.3,0.7-0.7,0.7c-0.4,0-0.7-0.3-0.7-0.7l0.2-5l0-4.1l-8.2,0.6
					v5.2l0.7,6.3C38.6,51.2,38.4,51.6,37.9,51.6C38,51.6,37.9,51.6,37.9,51.6z"/>
			</g>
		</g>
		<circle class="st1" cx="60.8" cy="82.1" r="1.9"/>
		<path class="st2" d="M81.9,55.3c-1.5,0.7-3.1,0.9-4.7,0.5l-0.1,0v16.1c0,0.3-0.1,0.5-0.3,0.7c-0.2,0.2-0.4,0.3-0.7,0.3h-9.7
			l0.6,1.3c0.7,1.8,2.5,2,3.7,2h10.8c1.1,0,2.2-0.5,3-1.3c0.8-0.8,1.2-1.9,1.2-3V55.1l-0.7-0.2C84,54.6,82.9,54.8,81.9,55.3z"/>
		<path class="st2" d="M77.1,48.3v5.3l0.6,0.2c1.1,0.3,2.2,0.2,3.2-0.3c1.4-0.7,3.1-0.9,4.6-0.5l0.2,0v-7c0-2.2-1.7-4.1-3.9-4.2
			c-0.1,0-0.2,0-0.3,0H70.7c-0.1,0-0.2,0-0.4,0c-2.2,0.2-3.9,2-3.9,4.2v1.2h9.7C76.7,47.3,77.1,47.8,77.1,48.3z"/>
		<path class="st1" d="M81,37c0-0.5-0.5-0.9-1-1h-7.8c-0.5,0-0.9,0.4-0.9,1v2.8H81V37z"/>
		<rect x="72.8" y="25.2" class="st1" width="6.8" height="4.5"/>
		<rect x="74.7" y="31.7" class="st2" width="2.9" height="2.3"/>
		<path class="st1" d="M66.9,55.4c1.2-1,3-0.9,4.1,0.2c1.1,1.1,1.3,2.8,0.4,4.1c0.9,0.5,1.5,1.4,1.6,2.4s-0.3,2-1.1,2.7l-1,0.8
			c0.3,0.2,0.6,0.4,0.8,0.7v0c0.5,0.6,0.8,1.5,0.7,2.3c-0.1,0.8-0.5,1.6-1.1,2.1l-0.2,0.1h4V49.3h-8.7v5.6c0.1,0.2,0.3,0.4,0.3,0.7
			L66.9,55.4z"/>
		<path class="st1" d="M70.2,67.7c-0.3-0.5-0.9-0.6-1.4-0.4c-0.1,0-0.2,0.1-0.2,0.1l-3.7,3l0.1,2.7l4.9-4
			C70.4,68.7,70.5,68.1,70.2,67.7z"/>
		<path class="st1" d="M64.7,55.9C64.7,55.9,64.7,55.9,64.7,55.9c-0.1-0.1-0.1-0.1-0.2-0.2l0.1,1.7C65,57,65,56.4,64.7,55.9z"/>
		<path class="st1" d="M65.5,62l2.4-2c0,0,0,0,0,0l1.6-1.3c0.5-0.4,0.5-1.1,0.2-1.5c-0.4-0.5-1.1-0.5-1.5-0.2l-2.4,2h0l-1.2,1
			l0.1,2.7L65.5,62z"/>
		<path class="st1" d="M67.4,65.8c0.1-0.1,0.2-0.1,0.3-0.2c0-0.1,0.1-0.1,0.1-0.1l2.8-2.3c0.4-0.3,0.5-0.8,0.3-1.2
			c-0.2-0.4-0.6-0.7-1-0.7c-0.2,0-0.5,0.1-0.7,0.2c0,0,0,0,0,0l-2.4,2l-2,1.7l0.1,2.7L67.4,65.8z"/>
		<circle class="st1" cx="48.8" cy="82.9" r="1.9"/>
		<path class="st2" d="M61,42.9c1-0.7,1.4-2.1,0.9-3.3l-2.4-3.8l-2.4,3.8c-0.5,1-0.3,2.2,0.5,3C58.5,43.5,59.9,43.6,61,42.9z"/>
		<path class="st3" d="M68.7,55.8c-0.1,0-0.2,0-0.3,0.1C68.5,55.8,68.6,55.8,68.7,55.8z"/>
		<path class="st3" d="M70.8,58.7c0-0.1,0.1-0.2,0.1-0.3C70.9,58.5,70.8,58.6,70.8,58.7z"/>
		<path class="st3" d="M70.5,59.1c0.1-0.1,0.1-0.1,0.1-0.2C70.6,59,70.6,59,70.5,59.1z"/>
		<path class="st3" d="M71,57.5c-0.1-0.7-0.6-1.4-1.3-1.6c-0.3-0.1-0.6-0.1-0.9-0.1c0.7,0,1.3,0.2,1.8,0.8c0.4,0.5,0.6,1.2,0.4,1.9
			C71,58.1,71,57.8,71,57.5z"/>
		<path class="st3" d="M83,39.9V37c0-1.6-1.4-3-3-3h-0.5v-2.3h0.9c0.6,0,1.1-0.4,1.1-1v-6.5c0-0.6-0.5-1-1.1-1h-8.7
			c-0.3,0-0.5,0.1-0.7,0.3c-0.2,0.2-0.3,0.4-0.3,0.7v2.4c-0.9-0.6-1.8-1-2.8-1l-7.5-0.1h0c-0.6,0-1,0.5-1,1c0,0.6,0.4,1,1,1l7.5,0.1
			c1.6,0,2.9,1.3,2.8,2.9c0,0.1,0,0.2,0.1,0.3c0.1,0.5,0.5,0.8,1,0.8h0.9V34h-0.4c-1.6,0-2.9,1.3-2.9,3v2.9
			c-2.7,0.7-4.9,3.2-4.9,6.1v7.5l0,1c0.4,0.1,0.7,0.3,1,0.7v-6.9V46c0-2.8,2.1-5,4.9-5.3V37c0-1.1,0.9-1.9,1.9-1.9h1.5v-4.3h-1.9
			v-6.5h8.7v6.5h-1.9V35H80c1.1,0,1.9,0.9,1.9,1.9v3.8c2.7,0.2,4.9,2.5,4.9,5.3v8.3v17.5c0,2.9-2.4,5.3-5.3,5.3H70.7
			c-1.9,0-4.2-1.6-5.1-3.2l-0.5,0.4l0.2,0.6l0.2,0.4c1.3,1.5,3.2,2.8,5.2,2.8h10.8c1.7,0,3.3-0.7,4.4-1.8c1.2-1.2,1.8-2.8,1.8-4.4
			V46C87.8,43.1,85.8,40.6,83,39.9z"/>
		<path class="st3" d="M68.2,55.9c-0.1,0-0.1,0.1-0.2,0.1C68.1,55.9,68.1,55.9,68.2,55.9z"/>
		<path class="st3" d="M81.4,54.4c-1.2,0.6-2.6,0.8-4,0.4l-1.3-0.4v17.4H65.6V74c0.9,1.6,3.2,3.2,5.1,3.2h10.8
			c2.9,0,5.3-2.4,5.3-5.3V54.4L85.4,54C84.1,53.6,82.7,53.7,81.4,54.4z M85.8,71.9c0,1.1-0.4,2.2-1.2,3c-0.8,0.8-1.9,1.3-3,1.3H70.7
			c-1.3,0-3.2-0.3-3.7-2l-0.9-1.3h10c0.3,0,0.5-0.1,0.7-0.3c0.2-0.2,0.3-0.4,0.3-0.7V55.7l0.1,0c1.6,0.4,3.3,0.3,4.7-0.5
			c1-0.5,2.1-0.6,3.2-0.3l0.7,0.2V71.9z"/>
		<path class="st3" d="M76.1,54.4l1.3,0.4c1.3,0.4,2.7,0.2,4-0.4c1.2-0.6,2.6-0.8,3.9-0.4l1.5,0.4V46c0-2.8-2.1-5-4.9-5.3
			c-0.1,0-0.3,0-0.4,0H70.7c-0.1,0-0.3,0-0.4,0c-2.7,0.2-4.9,2.5-4.9,5.3v2.3h10.7V54.4z M66.4,47.3V46c0-2.2,1.7-4.1,3.9-4.2
			c0.1,0,0.2,0,0.4,0h10.8c0.1,0,0.2,0,0.3,0c2.2,0.2,3.9,2,3.9,4.2v7l-0.2,0c-1.6-0.4-3.2-0.3-4.6,0.5c-1,0.5-2.2,0.6-3.2,0.3
			l-0.6-0.2v-5.3c0-0.6-0.4-1.1-1-1.1H66.4z"/>
		<path class="st3" d="M81.5,40.7c0.1,0,0.3,0,0.4,0V37c0-1.1-0.9-1.9-1.9-1.9h-1.5h-4.9h-1.5c-1.1,0-1.9,0.9-1.9,1.9v3.8
			c0.1,0,0.3,0,0.4,0H81.5z M71.3,37c0-0.5,0.4-0.9,0.9-1H80c0.5,0,1,0.4,1,1v2.8h-9.7V37z"/>
		<path class="st3" d="M80.5,30.7v-6.5h-8.7v6.5h1.9h4.9H80.5z M72.8,29.6v-4.5h6.8v4.5H72.8z"/>
		<path class="st3" d="M78.6,30.7h-4.9V35h4.9V30.7z M77.5,34h-2.9v-2.3h2.9V34z"/>
		<path class="st3" d="M65.2,58.2l2.4-2c0.1-0.1,0.3-0.2,0.4-0.2c0.1,0,0.1-0.1,0.2-0.1c0.1,0,0.1,0,0.2-0.1c0.1,0,0.2,0,0.3-0.1
			c0,0,0,0,0.1,0c0.3,0,0.6,0,0.9,0.1c0.7,0.3,1.2,0.9,1.3,1.6c0,0.3,0,0.6-0.1,0.9c0,0,0,0,0,0.1c0,0.1-0.1,0.2-0.1,0.3
			c0,0.1-0.1,0.1-0.1,0.2c0,0.1-0.1,0.1-0.1,0.2c-0.1,0.1-0.2,0.2-0.3,0.3l-1.6,1.3c0.9-0.7,2.2-0.6,2.9,0.3
			c0.7,0.9,0.6,2.2-0.3,2.9l-2.8,2.3l0,0.1c1-0.4,2.1-0.1,2.7,0.8c0.6,0.9,0.4,2.1-0.4,2.7l-4.2,0.9l0,1h9.7V54.4v-6H65.4v6.9
			c0,0,0,0,0,0C66.2,56.1,66.1,57.5,65.2,58.2z M66.4,49.3h8.7v21.5h-4l0.2-0.1c0.6-0.5,1-1.3,1.1-2.1c0.1-0.8-0.2-1.6-0.7-2.3v0
			c-0.2-0.3-0.5-0.5-0.8-0.7l1-0.8c0.8-0.7,1.2-1.7,1.1-2.7s-0.7-1.9-1.6-2.4c0.9-1.3,0.8-3-0.4-4.1c-1.1-1.1-2.9-1.1-4.1-0.2
			l-0.2,0.1c-0.1-0.2-0.2-0.5-0.3-0.7V49.3z"/>
		<path class="st3" d="M68,56c-0.1,0.1-0.3,0.1-0.4,0.2C67.7,56.1,67.8,56,68,56z"/>
		<path class="st3" d="M68.4,55.8c-0.1,0-0.1,0-0.2,0.1C68.3,55.8,68.3,55.8,68.4,55.8z"/>
		<path class="st3" d="M70.9,58.4C70.9,58.4,70.9,58.4,70.9,58.4C70.9,58.4,70.9,58.4,70.9,58.4z"/>
		<path class="st3" d="M70.7,58.9c0-0.1,0.1-0.1,0.1-0.2C70.7,58.8,70.7,58.8,70.7,58.9z"/>
		<path class="st3" d="M68.7,55.8C68.7,55.8,68.7,55.8,68.7,55.8C68.7,55.8,68.7,55.8,68.7,55.8z"/>
		<path class="st3" d="M70.2,59.4c0.1-0.1,0.2-0.2,0.3-0.3C70.5,59.2,70.3,59.3,70.2,59.4z"/>
		<path class="st3" d="M56.6,44.4c1.7,1.4,4.1,1.4,5.8,0c1.7-1.4,2.2-3.7,1.3-5.7c0,0,0-0.1-0.1-0.1l-3.3-5.2
			c-0.2-0.3-0.5-0.5-0.9-0.5c-0.3,0-0.7,0.2-0.9,0.5l-3.3,5.2c0,0,0,0.1-0.1,0.1C54.3,40.6,54.9,43,56.6,44.4z M56.2,39.1l3.3-5.2
			l3.3,5.2c0.7,1.5,0.3,3.4-1,4.4c-1.3,1.1-3.2,1.1-4.6,0C55.9,42.5,55.4,40.7,56.2,39.1z"/>
		<path class="st3" d="M57.2,43.6c1.3,1.1,3.2,1.1,4.6,0c1.3-1.1,1.8-2.9,1-4.4l-3.3-5.2l-3.3,5.2C55.4,40.7,55.9,42.5,57.2,43.6z
			 M57.1,39.6l2.4-3.8l2.4,3.8c0.5,1.2,0.2,2.5-0.9,3.3s-2.5,0.6-3.4-0.3C56.8,41.8,56.6,40.6,57.1,39.6z"/>
		<path class="st3" d="M48.8,79c-2.2,0-3.9,1.8-3.9,3.9c0,2.2,1.8,3.9,3.9,3.9c2.2,0,3.9-1.8,3.9-3.9C52.7,80.8,51,79,48.8,79z
			 M48.8,85.8c-1.6,0-2.9-1.3-2.9-2.9c0-1.6,1.3-2.9,2.9-2.9c1.6,0,2.9,1.3,2.9,2.9C51.7,84.5,50.4,85.8,48.8,85.8z"/>
		<path class="st3" d="M48.8,80c-1.6,0-2.9,1.3-2.9,2.9c0,1.6,1.3,2.9,2.9,2.9c1.6,0,2.9-1.3,2.9-2.9C51.7,81.3,50.4,80,48.8,80z
			 M48.8,84.8c-1,0-1.9-0.8-1.9-1.9c0-1,0.8-1.9,1.9-1.9c1,0,1.9,0.8,1.9,1.9C50.7,84,49.9,84.8,48.8,84.8z"/>
		<path class="st3" d="M60.8,78.2c-2.2,0-3.9,1.8-3.9,3.9c0,2.2,1.8,3.9,3.9,3.9s3.9-1.8,3.9-3.9C64.7,79.9,63,78.2,60.8,78.2z
			 M60.8,85c-1.6,0-2.9-1.3-2.9-2.9c0-1.6,1.3-2.9,2.9-2.9c1.6,0,2.9,1.3,2.9,2.9C63.7,83.7,62.4,85,60.8,85z"/>
		<path class="st3" d="M60.8,79.2c-1.6,0-2.9,1.3-2.9,2.9c0,1.6,1.3,2.9,2.9,2.9c1.6,0,2.9-1.3,2.9-2.9
			C63.7,80.5,62.4,79.2,60.8,79.2z M60.8,84c-1,0-1.9-0.8-1.9-1.9c0-1,0.8-1.9,1.9-1.9c1,0,1.9,0.8,1.9,1.9
			C62.7,83.1,61.9,84,60.8,84z"/>
		<path class="st3" d="M65.4,50.7h1.1V53v2.1v16.7c0,1.1,0.4,2.2,1.2,3c0.8,0.8,1.9,1.3,3,1.3h2.5v1v1h-2.5c-1.7,0-3.3-0.7-4.4-1.8
			c-1.2-1.2-1.8-2.8-1.8-4.4V50.7H65.4z"/>
		<rect x="66.4" y="50.7" class="st1" width="8" height="20.1"/>
	</g>
</g>
</svg>
