<?xml version="1.0" encoding="utf-8"?>
<!-- Generator: Adobe Illustrator 19.1.0, SVG Export Plug-In . SVG Version: 6.00 Build 0)  -->
<svg version="1.1" id="Layer_1" xmlns="http://www.w3.org/2000/svg" xmlns:xlink="http://www.w3.org/1999/xlink" x="0px" y="0px"
	 viewBox="0 0 110 110" style="enable-background:new 0 0 110 110;" xml:space="preserve">
<style type="text/css">
	.st0{opacity:0.2;fill:#23A9E1;}
	.st1{fill:#65C6BB;}
	.st2{fill:#23A9E1;}
	.st3{fill:#183A63;}
	.st4{fill:#FCD0A5;}
	.st5{fill:#4297D3;}
	.st6{fill:#2A1D1D;}
	.st7{fill:#F0B98A;}
	.st8{fill:#F15C57;}
	.st9{fill:#F2F4F6;}
	.st10{fill:#DFEAEE;}
	.st11{fill:#764830;}
	.st12{fill:#5E3827;}
	.st13{fill:#156299;}
	.st14{fill:#3E8BC8;}
	.st15{opacity:0.2;fill:#25A6DF;}
	.st16{fill:#25A6DF;}
	.st17{fill:#66C6BB;}
	.st18{fill:#1A3B63;}
	.st19{fill:#FACEA4;}
	.st20{fill:#4296D2;}
	.st21{fill:#2B1C1D;}
	.st22{fill:#EFB888;}
	.st23{fill:#F15E57;}
	.st24{fill:#F2F4F5;}
	.st25{fill:#DDE8ED;}
	.st26{fill:none;}
</style>
<g>
	<circle class="st0" cx="55" cy="55" r="53.7"/>
	<g>
		<g>
			<path class="st5" d="M72.3,72.2H37.7c-5.1,0-9.8-2.7-12.3-7.1l0.9-0.9c2.7-2.7,4.1-6.3,4.1-10v-4.3c0-13.5,10.9-24.5,24.5-24.5
				s24.5,10.9,24.5,24.5v4.3c0,3.8,1.5,7.4,4.1,10l0.9,0.9C82,69.4,77.3,72.2,72.3,72.2z"/>
			<path class="st4" d="M62.7,51.8c-8.2,0-14.8-6.6-14.8-14.8v4.4c0,5.8-4.7,10.4-10.4,10.4h-0.8v7.4c0,8.9,5.8,16.9,14.4,19.5
				c2.6,0.8,5.4,0.8,8,0c8.5-2.7,14.4-10.6,14.4-19.5v-7.4H62.7z"/>
			<path class="st6" d="M63.2,59.9c-2.8,0-5.1-2.3-5.1-5.1h2c0,1.7,1.4,3.1,3.1,3.1c1.7,0,3.1-1.4,3.1-3.1h2
				C68.2,57.7,66,59.9,63.2,59.9z"/>
			<path class="st6" d="M46.8,59.9c-2.8,0-5.1-2.3-5.1-5.1h2c0,1.7,1.4,3.1,3.1,3.1c1.7,0,3.1-1.4,3.1-3.1h2
				C51.9,57.7,49.7,59.9,46.8,59.9z"/>
			<path class="st4" d="M79.5,69.1c-1.1,0-2,0.9-2,2V63c0-1.1-0.9-2-2-2s-2,0.9-2,2c0-1.1-0.9-2-2-2s-2,0.9-2,2c0-1.1-0.9-2-2-2
				s-2,0.9-2,2v2c0-1.1-0.9-2-2-2c-1.1,0-2,0.9-2,2v11.1c0,2.8,0.3,5.6,1,8.3h15.3c2.6-2.6,4.1-6.1,4.1-9.8v-3.4
				C81.5,70,80.6,69.1,79.5,69.1z"/>
			<path class="st7" d="M74.8,73.6c0,0-3.9,1.4-2.4,3.4s2.1,3,2.4,4.3c0.3,1.3,1.7,3.5,2.6,3.1s0.6-4.5,0.5-4.7s-0.7-5.3-0.6-5.6
				c0.1-0.3-0.3-1.9-0.3-1.9L74.8,73.6z"/>
			<path class="st4" d="M48.9,65v11.1c0,2.8-0.3,5.6-1,8.3H32.6c-2.6-2.6-4.1-6.1-4.1-9.8v-3.4c0-1.1,0.9-2,2-2s2,0.9,2,2V63
				c0-1.1,0.9-2,2-2c1.1,0,2,0.9,2,2c0-1.1,0.9-2,2-2c1.1,0,2,0.9,2,2c0-1.1,0.9-2,2-2c1.1,0,2,0.9,2,2v2c0-1.1,0.9-2,2-2
				C48,63,48.9,63.9,48.9,65z"/>
			<path class="st7" d="M48.9,65v6.6c-0.3,0-0.7-0.1-1.1-0.3c-3.3-1.2-2.6-4.8-7-2.4c-2.6,1.4-5.9-0.4-8.2-2.1V63c0-1.1,0.9-2,2-2
				c1.1,0,2,0.9,2,2c0-1.1,0.9-2,2-2c1.1,0,2,0.9,2,2c0-1.1,0.9-2,2-2c1.1,0,2,0.9,2,2v2c0-1.1,0.9-2,2-2C48,63,48.9,63.9,48.9,65z"
				/>
			<path class="st3" d="M68.2,54.8h-2c0,1.7-1.4,3.1-3.1,3.1c-1.7,0-3.1-1.4-3.1-3.1h-2c0,2.8,2.3,5.1,5.1,5.1
				C66,59.9,68.2,57.7,68.2,54.8z"/>
			<path class="st3" d="M46.8,57.9c-1.7,0-3.1-1.4-3.1-3.1h-2c0,2.8,2.3,5.1,5.1,5.1c2.8,0,5.1-2.3,5.1-5.1h-2
				C49.9,56.5,48.5,57.9,46.8,57.9z"/>
			<path class="st3" d="M85.4,65.5c0.2-0.4,0.2-0.9-0.2-1.2l-0.9-0.9c-2.5-2.5-3.9-5.8-3.8-9.3v-4.3c0-14.1-11.4-25.5-25.5-25.5
				S29.5,35.7,29.5,49.7v4.3c0,3.5-1.4,6.8-3.8,9.3l-0.9,0.9c-0.3,0.3-0.4,0.8-0.2,1.2c0.9,1.5,2,2.9,3.4,4c-0.3,0.5-0.4,1-0.5,1.6
				v3.4c0,4,1.6,7.8,4.4,10.6c0.2,0.2,0.5,0.3,0.7,0.3h15.3c0.5,0,0.9-0.3,1-0.8c0.4-1.7,0.7-3.5,0.9-5.3c0.3,0.1,0.6,0.2,1,0.3
				c2.8,0.9,5.8,0.9,8.6,0c0.3-0.1,0.6-0.2,1-0.3c0.2,1.8,0.5,3.6,0.9,5.3c0.1,0.5,0.5,0.8,1,0.8h15.3c0.3,0,0.5-0.1,0.7-0.3
				c2.8-2.8,4.4-6.6,4.4-10.6v-3.4c0-0.6-0.2-1.1-0.5-1.6C83.4,68.4,84.6,67.1,85.4,65.5z M26.7,65.2l0.4-0.4
				c2.9-2.8,4.5-6.7,4.4-10.7v-4.3c0-12.9,10.5-23.4,23.4-23.4s23.4,10.5,23.4,23.4v4.3c0,4,1.6,7.9,4.4,10.7l0.4,0.4
				c-0.8,1.2-1.7,2.2-2.8,3.1c-0.6-0.2-1.4-0.2-2,0V63c0-1.7-1.4-3.1-3.1-3.1c-0.4,0-0.7,0.1-1.1,0.2c0-0.3,0-0.7,0-1v-7.4
				c0-0.6-0.5-1-1-1H62.7c-7.6,0-13.8-6.2-13.8-13.8v-0.5c0-0.6-0.5-1-1-1s-1,0.5-1,1v4.8c0,5.2-4.2,9.4-9.4,9.4h-0.8
				c-0.6,0-1,0.5-1,1v7.4c0,0.3,0,0.7,0,1c-0.3-0.1-0.7-0.2-1.1-0.2c-1.7,0-3.1,1.4-3.1,3.1v5.3c-0.6-0.2-1.4-0.2-2,0
				C28.5,67.4,27.5,66.4,26.7,65.2L26.7,65.2z M29.5,71.1c0-0.6,0.5-1,1-1s1,0.5,1,1v10.4c-1.3-2.1-2-4.5-2-6.9V71.1z M47.9,76.1
				c0,2.4-0.3,4.9-0.8,7.3H33.6V63c0-0.6,0.5-1,1-1s1,0.5,1,1v10.2h2V63c0-0.6,0.5-1,1-1c0.6,0,1,0.5,1,1v10.2h2V63c0-0.6,0.5-1,1-1
				s1,0.5,1,1v10.2h2V65c0-0.6,0.5-1,1-1s1,0.5,1,1V76.1z M60.1,65v11.1c0,0.4,0,0.7,0,1.1c-0.5,0.2-1,0.4-1.4,0.5
				c-2.4,0.7-5,0.7-7.4,0c-0.5-0.2-1-0.3-1.4-0.5c0-0.4,0-0.7,0-1.1V65c0-1-0.5-2-1.3-2.5s-1.9-0.7-2.9-0.3c-0.3-1-1.1-1.8-2.1-2.1
				c-1-0.3-2.1,0-2.9,0.7c-0.8-0.8-2-1-3-0.6c0-0.3,0-0.6,0-1v-6.4c5.2-0.1,9.6-3.7,10.9-8.7c2.7,5.3,8.1,8.7,14.1,8.7h9.7v6.4
				c0,0.3,0,0.6,0,1c-1-0.4-2.2-0.1-3,0.6c-0.8-0.7-1.9-1-2.9-0.7c-1,0.3-1.8,1.1-2.1,2.1c-0.9-0.4-2-0.3-2.9,0.3S60.1,64,60.1,65z
				 M76.4,83.4H62.9c-0.5-2.4-0.8-4.8-0.8-7.3V65c0-0.6,0.5-1,1-1s1,0.5,1,1v8.2h2V63c0-0.6,0.5-1,1-1s1,0.5,1,1v10.2h2V63
				c0-0.6,0.5-1,1-1s1,0.5,1,1v10.2h2V63c0-0.6,0.5-1,1-1s1,0.5,1,1V83.4z M80.5,74.5c0,2.5-0.7,4.9-2,6.9V71.1c0-0.6,0.5-1,1-1
				s1,0.5,1,1V74.5z"/>
		</g>
		<g>
			<g>
				<g>
					<path class="st8" d="M26.8,86.2C46.2,67.1,65.6,48,84.9,28.9c1.1-1.1-0.6-2.9-1.8-1.8C63.8,46.3,44.4,65.4,25.1,84.5
						C23.9,85.6,25.7,87.4,26.8,86.2L26.8,86.2z"/>
				</g>
			</g>
			<g>
				<g>
					<path class="st8" d="M25.5,28.5c19.1,19.4,38.2,38.7,57.3,58.1c1.1,1.1,2.9-0.6,1.8-1.8C65.4,65.5,46.3,46.1,27.2,26.8
						C26.1,25.6,24.3,27.4,25.5,28.5L25.5,28.5z"/>
				</g>
			</g>
		</g>
	</g>
</g>
</svg>
