<?xml version="1.0" encoding="utf-8"?>
<!-- Generator: Adobe Illustrator 19.1.0, SVG Export Plug-In . SVG Version: 6.00 Build 0)  -->
<svg version="1.1" id="Layer_1" xmlns="http://www.w3.org/2000/svg" xmlns:xlink="http://www.w3.org/1999/xlink" x="0px" y="0px"
	 viewBox="0 0 110 110" style="enable-background:new 0 0 110 110;" xml:space="preserve">
<style type="text/css">
	.st0{opacity:0.2;fill:#23A9E1;}
	.st1{fill:#65C6BB;}
	.st2{fill:#23A9E1;}
	.st3{fill:#183A63;}
	.st4{fill:#FCD0A5;}
	.st5{fill:#4297D3;}
	.st6{fill:#2A1D1D;}
	.st7{fill:#F0B98A;}
	.st8{fill:#F15C57;}
	.st9{fill:#F2F4F6;}
	.st10{fill:#DFEAEE;}
	.st11{fill:#764830;}
	.st12{fill:#5E3827;}
	.st13{fill:#156299;}
	.st14{fill:#3E8BC8;}
	.st15{opacity:0.2;fill:#25A6DF;}
	.st16{fill:#25A6DF;}
	.st17{fill:#66C6BB;}
	.st18{fill:#1A3B63;}
	.st19{fill:#FACEA4;}
	.st20{fill:#4296D2;}
	.st21{fill:#2B1C1D;}
	.st22{fill:#EFB888;}
	.st23{fill:#F15E57;}
	.st24{fill:#F2F4F5;}
	.st25{fill:#DDE8ED;}
	.st26{fill:none;}
</style>
<g>
	<circle class="st15" cx="55" cy="55" r="53.7"/>
	<g>
		<path class="st26" d="M75.5,47.1L75.5,47.1c-8.7,0-15.3-1.3-20.2-3C60.1,45.8,66.7,47.1,75.5,47.1z"/>
		<path class="st26" d="M35.1,47.1c4.5-1.5,8.5-5.7,8.5-9.8l0,0C43.6,41.3,39.5,45.6,35.1,47.1l0-3c0-7.7,4.3-14.4,10.6-17.8
			C39.3,29.7,35,36.4,35,44.1L35.1,47.1L35.1,47.1L35.1,47.1z"/>
		<path class="st26" d="M59.8,80.2c0,0.4-0.1,0.8-0.2,1.3c-0.1,0.9-0.2,1.7-0.3,2.6l-1-0.6c-0.8-0.6-2.2-0.7-3.1-0.3l-2.7,1.1
			c-0.1,0-0.2,0.1-0.4,0.1c-0.3,0-0.6-0.1-0.7-0.2l-2.4-1.7c-0.9-0.6-2.2-0.7-3.2-0.3l-0.9,0.4c0.3-1.4,0.8-2.9,1.4-4.4
			c1.4,1.3,3.3,2.1,5.3,2.1H59C59.2,80.2,59.5,80.2,59.8,80.2z"/>
		<path class="st26" d="M47.1,77.8C47.1,77.8,47.1,77.8,47.1,77.8C47.1,77.8,47.1,77.7,47.1,77.8C47.1,77.7,47.1,77.8,47.1,77.8z"/>
		<path class="st26" d="M64.8,26.3c-1.8-0.9-3.7-1.6-5.7-2c-0.9-0.2-1.8-0.3-2.7-0.3c0.9,0.1,1.8,0.1,2.7,0.3
			C61.1,24.6,63,25.3,64.8,26.3z"/>
		<path class="st26" d="M75.3,60.2C75.3,60.2,75.3,60.2,75.3,60.2c0.1-0.8,0.2-1.5,0.2-2.3V47.1c0,0,0,0,0,0v10.8
			C75.5,58.7,75.4,59.4,75.3,60.2z"/>
		<path class="st26" d="M74.6,46.2L74.6,46.2c-3.5,0-6.9-0.3-10-0.8C67.8,45.9,71.1,46.2,74.6,46.2z"/>
		<path class="st26" d="M49.8,79.2c0.1,0,0.2,0.1,0.3,0.1c0.1,0,0.2,0,0.3,0C50.3,79.2,50,79.2,49.8,79.2
			C49.8,79.1,49.8,79.2,49.8,79.2z"/>
		<path class="st26" d="M78.4,59.9c2.6-0.9,4.5-3.4,4.5-6.3c0-1.2-0.3-2.4-0.9-3.4c0.6,1,0.9,2.1,0.9,3.4C82.9,56.6,81,59,78.4,59.9
			z"/>
		<path class="st26" d="M59,79.4h-7.4c-0.3,0-0.6,0-0.9-0.1c0,0,0,0,0.1,0c0.3,0,0.5,0.1,0.8,0.1L59,79.4c0.3,0,0.6,0,0.9-0.1
			c0,0,0,0,0,0C59.6,79.4,59.3,79.4,59,79.4z"/>
		<path class="st26" d="M65.1,75.8C64.8,76.3,64.8,76.3,65.1,75.8l0.2-0.4c0,0,0,0,0,0L65.1,75.8z"/>
		<path class="st26" d="M76.4,47c0.4,0,0.7,0,1,0.1C77.1,47.1,76.7,47,76.4,47z"/>
		<path class="st26" d="M48.9,78.8c0.2,0.1,0.4,0.2,0.7,0.2c0,0,0,0,0.1,0C49.3,79,49.1,78.9,48.9,78.8
			C48.9,78.8,48.9,78.8,48.9,78.8z"/>
		<path class="st26" d="M51.9,41.8c-2.8-1.3-4.7-2.6-5.9-3.5c-0.1-0.1-0.2-0.1-0.3-0.2c0.1,0.1,0.2,0.1,0.3,0.2
			C47.1,39.2,49.1,40.6,51.9,41.8c0.4,0.2,0.6,0.7,0.4,1.1c0,0,0,0,0,0C52.5,42.5,52.3,42,51.9,41.8z"/>
		<path class="st26" d="M48.7,78.7c0,0,0.1,0,0.1,0.1c-0.3-0.1-0.5-0.2-0.8-0.4C48.2,78.5,48.4,78.6,48.7,78.7z"/>
		<path class="st26" d="M45.8,33.4c-0.6,1-1.2,2.1-1.7,3.2c0,0,0,0,0,0C44.6,35.5,45.2,34.4,45.8,33.4z"/>
		<path class="st26" d="M44.2,36.7C44.2,36.7,44.3,36.7,44.2,36.7C44.3,36.7,44.3,36.7,44.2,36.7C44.3,36.7,44.3,36.7,44.2,36.7
			C44.3,36.7,44.2,36.7,44.2,36.7z"/>
		<path class="st26" d="M44,37.7c-0.1-0.1-0.1-0.1-0.2-0.2c0,0,0,0,0,0c0,0,0,0,0,0C43.9,37.6,44,37.7,44,37.7z"/>
		<path class="st26" d="M47.6,78.2c0.1,0.1,0.2,0.1,0.3,0.2c-0.2-0.1-0.3-0.2-0.5-0.4C47.5,78.1,47.5,78.1,47.6,78.2z"/>
		<path class="st26" d="M27.6,56.2c0.4,0.9,1,1.8,1.8,2.4C28.6,58,28,57.2,27.6,56.2z"/>
		<path class="st26" d="M54.1,43.7C54.1,43.7,54.1,43.7,54.1,43.7c0.1-0.4,0.5-0.6,0.9-0.5C54.6,43.1,54.2,43.3,54.1,43.7z"/>
		<path class="st26" d="M30.7,47.7c-1.5,0.8-2.7,2.1-3.3,3.7C28,49.8,29.2,48.5,30.7,47.7z"/>
		<path class="st19" d="M34.3,59.4c0-0.5-0.1-1-0.1-1.5v-4.8c-0.7-0.1-1.7,0.1-2.2,1.1c-0.1,0.3-0.5,0.5-0.8,0.5
			c-0.1,0-0.2,0-0.3-0.1c-0.4-0.2-0.6-0.7-0.4-1.1c0.8-1.8,2.5-2.2,3.8-2.2v-3.4c-0.2,0-0.3,0-0.5,0c-3.2,0-5.8,2.6-5.8,5.8
			c0,3.2,2.6,5.8,5.8,5.8C33.9,59.4,34.1,59.4,34.3,59.4z"/>
		<path class="st19" d="M82.1,53.7c0-3.2-2.6-5.7-5.7-5.8v3.5c1.3-0.1,3,0.4,3.8,2.2c0.2,0.4,0,0.9-0.4,1.1c-0.1,0-0.2,0.1-0.3,0.1
			c-0.3,0-0.6-0.2-0.8-0.5c-0.5-1.1-1.5-1.2-2.2-1.1v4.8c0,0.5,0,1-0.1,1.6c0,0,0,0,0,0C79.5,59.4,82.1,56.8,82.1,53.7z"/>
		<path class="st16" d="M56.9,24.8c-0.5,0-1.1-0.1-1.6-0.1c-10.7,0-19.4,8.7-19.4,19.4v1.7c1.7-0.7,3.2-1.9,4.5-3.3
			c1.5-1.7,2.4-3.6,2.4-5.3c0-0.4,0.2-0.7,0.6-0.8c0.3-0.1,0.6,0,0.9,0.2c0.5-1.1,1-2.2,1.7-3.2C48.3,29.4,52.3,26.3,56.9,24.8z"/>
		<path class="st16" d="M69,30.4c-2.7-2.8-6.2-4.6-10-5.3c-0.7-0.1-1.3-0.2-2-0.3c-4.6,1.5-8.6,4.5-11.1,8.6c-0.6,1-1.2,2.1-1.6,3.2
			c0,0,0,0,0.1,0.1c0,0,0,0,0,0c0,0,0,0,0,0c0,0,0.5,0.6,1.5,1.4c0.1,0.1,0.2,0.1,0.3,0.2c1.1,0.9,3,2.2,5.9,3.5
			c0.4,0.2,0.6,0.7,0.4,1.1c0.6,0.3,1.2,0.5,1.8,0.7c0.1-0.4,0.5-0.6,0.9-0.5c0,0,0.1,0,0.1,0c2.9,1,6,1.8,9.4,2.3
			c3.1,0.5,6.5,0.7,10,0.8v-2.1C74.6,38.9,72.6,34.1,69,30.4z"/>
		<path class="st16" d="M45.8,33.4c2.5-4,6.4-7.1,11.1-8.6c0,0,0,0,0,0C52.3,26.3,48.3,29.4,45.8,33.4z"/>
		<path class="st18" d="M83.8,53.7c0,4.1-3.3,7.5-7.5,7.5c-0.1,0-0.2,0-0.2,0c-0.4,2.6-1.3,5.1-2.7,7.4C71.6,71.6,69,74.2,66,76
			c0,0-2.5,1.3-6.7,2.4c-1.7,0.4-0.8-0.5-0.5-1.1l6.6-2c5.4-3.1,9.2-8.7,10-15.2c0.3,0.1,0.6,0.1,1,0.1c0.2,0,0.4,0,0.5,0
			c0.6,0,1.1-0.2,1.6-0.3c2.6-0.9,4.5-3.4,4.5-6.3c0-1.2-0.3-2.4-0.9-3.4c-1-1.6-2.6-2.8-4.6-3.2c0,0,0,0,0,0
			c-0.3-0.1-0.7-0.1-1.1-0.1h-0.1c-0.3,0-0.6,0-0.8,0.1v-3c0-5.6-2.3-10.6-5.9-14.3c-1.4-1.4-3-2.6-4.8-3.5c-1.8-0.9-3.7-1.6-5.7-2
			c-0.9-0.2-1.8-0.3-2.7-0.3c-0.4,0-0.8-0.1-1.2-0.1c-3.5,0-6.8,0.9-9.6,2.4C39.3,29.7,35,36.4,35,44.1v3h-0.5
			C34.2,47,34,47,33.7,47c-0.2,0-0.4,0-0.6,0c-0.8,0.1-1.6,0.3-2.4,0.7c-1.5,0.8-2.7,2.1-3.3,3.7c-0.3,0.7-0.4,1.4-0.4,2.2
			c0,0.9,0.2,1.8,0.5,2.6c0.4,0.9,1,1.8,1.8,2.4c1.2,1,2.7,1.6,4.3,1.6c0.5,0,0.9,0,1.4-0.1h0.1c0.4,3.3,1.5,6.3,3.2,8.9
			c1.7,2.6,4,4.8,6.8,6.3l0,0l-0.4,0.8c0,0-0.2-0.1-0.2-0.1c-3.1-1.8-5.6-4.4-7.4-7.5c-1.4-2.3-2.3-4.8-2.7-7.5c-0.3,0-0.5,0-0.8,0
			c-4.1,0-7.5-3.4-7.5-7.5c0-4.1,3.4-7.5,7.5-7.5c0.2,0,0.3,0,0.5,0v-2.1c0-11.6,9.4-21.1,21.1-21.1c1.3,0,2.7,0.1,4,0.4
			c4.1,0.8,7.9,2.8,10.9,5.8c4,4,6.2,9.3,6.2,14.9v2.1C80.4,46.2,83.8,49.5,83.8,53.7z"/>
		<path class="st19" d="M64,47.1c-3.4-0.5-6.5-1.3-9.4-2.3c-0.4-0.1-0.7-0.6-0.5-1.1c0,0,0,0,0,0c-0.6-0.2-1.2-0.5-1.8-0.7
			c0,0,0,0,0,0c-0.2,0.4-0.7,0.6-1.1,0.4c-3.5-1.6-5.7-3.2-6.9-4.3c-0.3,1-0.7,2.1-1.4,3.1c-0.3,0.5-0.7,1.1-1.2,1.6
			c-1.2,1.4-2.8,2.5-4.4,3.4c-0.4,0.2-0.9,0.4-1.3,0.6v10.2c0,0.8,0.1,1.5,0.1,2.3c0.3,2.7,1.2,5.3,2.5,7.6c1.1,1.8,2.4,3.4,4,4.8
			c0,0,2,2,3,2.2c0.5-0.9,1.6-2.7,2.2-3.5c0.4-0.6,0.9-1.2,1.4-1.7c3.5-4.1,6.9-5.4,9.5-5.1c1,0.1,2.1-0.5,2.7,0.2
			c1.5,1.9-0.5,6.5-0.9,11.6c1.5-0.2,3.7-1.3,4.4-1.7c0.5-0.3,1-0.5,1.4-0.8c1.1-0.7,1.7-1.2,1.7-1.2c1.6-1.4,2.9-3,4-4.8
			c1.4-2.3,2.2-4.9,2.5-7.6c0.1-0.8,0.1-1.5,0.1-2.3v-9.9C70.9,47.9,67.3,47.6,64,47.1z M46.5,55.3"/>
		<rect x="35.1" y="47.1" class="st18" width="0" height="0"/>
		<path class="st18" d="M35.1,60.1h0.1c-0.1-0.7-0.1-1.5-0.1-2.3V47.1h-0.5C34.2,47,34,47,33.7,47c-0.2,0-0.4,0-0.6,0
			c-0.8,0.1-1.6,0.3-2.4,0.7c-1.5,0.8-2.7,2.1-3.3,3.7c-0.2,0.7-0.4,1.4-0.4,2.2c0,0.9,0.2,1.8,0.5,2.6c0.4,0.9,1,1.8,1.8,2.4
			c1.2,1,2.7,1.6,4.3,1.6C34.2,60.3,34.6,60.2,35.1,60.1z M27.9,53.7c0-3.2,2.6-5.8,5.8-5.8c0.2,0,0.3,0,0.5,0v3.4
			c-1.3-0.1-3,0.4-3.8,2.2c-0.2,0.4,0,0.9,0.4,1.1c0.1,0,0.2,0.1,0.3,0.1c0.3,0,0.6-0.2,0.8-0.5c0.5-1.1,1.5-1.2,2.2-1.1v4.8
			c0,0.5,0,1,0.1,1.5c-0.2,0-0.4,0-0.6,0C30.5,59.4,27.9,56.8,27.9,53.7z"/>
		<path class="st18" d="M35.1,60.1c-0.4,0.1-0.9,0.1-1.4,0.1c-1.7,0-3.2-0.6-4.3-1.6c1.2,1,2.7,1.6,4.3,1.6h0
			C34.2,60.3,34.6,60.2,35.1,60.1l0.1,0c0,0,0,0,0,0H35.1z"/>
		<path class="st18" d="M27.5,51.4c-0.2,0.7-0.4,1.4-0.4,2.2c0,0.9,0.2,1.8,0.5,2.6c-0.3-0.8-0.5-1.7-0.5-2.6
			C27.1,52.9,27.2,52.1,27.5,51.4z"/>
		<path class="st18" d="M33.7,47c0.3,0,0.5,0,0.8,0.1H35v0h-0.5C34.3,47,34,47,33.7,47c-0.2,0-0.4,0-0.6,0c-0.8,0.1-1.6,0.3-2.4,0.7
			c0.7-0.4,1.5-0.6,2.4-0.7C33.3,47,33.5,47,33.7,47z"/>
		<path class="st18" d="M75.3,60.2c0.3,0,0.6,0.1,1,0.1c0.2,0,0.4,0,0.5,0c0.6,0,1.1-0.2,1.6-0.3c2.6-0.9,4.5-3.4,4.5-6.3
			c0-1.2-0.3-2.4-0.9-3.4c-1-1.6-2.6-2.8-4.6-3.2c0,0,0,0,0,0c-0.3-0.1-0.7-0.1-1-0.1c0,0,0,0-0.1,0c-0.3,0-0.5,0-0.8,0.1v10.8
			C75.5,58.7,75.4,59.4,75.3,60.2z M76.3,57.9v-4.8c0.7-0.1,1.7,0.1,2.2,1.1c0.1,0.3,0.5,0.5,0.8,0.5c0.1,0,0.2,0,0.3-0.1
			c0.4-0.2,0.6-0.7,0.4-1.1c-0.8-1.8-2.5-2.2-3.8-2.2v-3.5c3.2,0,5.7,2.6,5.7,5.8c0,3.2-2.6,5.8-5.8,5.8c0,0,0,0,0,0
			C76.3,58.9,76.3,58.4,76.3,57.9z"/>
		<path class="st18" d="M82,50.3c-1-1.6-2.6-2.8-4.6-3.2c0,0,0,0,0,0c0,0,0,0,0,0C79.4,47.5,81,48.7,82,50.3z"/>
		<path class="st18" d="M76.3,60.3c-0.3,0-0.6,0-1-0.1c0,0,0,0,0,0C75.6,60.2,76,60.3,76.3,60.3c0.2,0,0.4,0,0.5,0
			c0.6,0,1.1-0.2,1.6-0.3c-0.5,0.2-1,0.3-1.6,0.3C76.7,60.3,76.5,60.3,76.3,60.3z"/>
		<path class="st18" d="M76.4,47C76.3,47,76.3,47,76.4,47c-0.3,0-0.6,0-0.9,0h0v0C75.8,47,76,47,76.4,47C76.3,47,76.3,47,76.4,47z"
			/>
		<path class="st18" d="M37.2,47.1c1.6-0.8,3.2-2,4.4-3.4c0.5-0.5,0.8-1,1.2-1.6c0.2-1.6,0.5-3.1,1-4.6c0,0,0,0,0,0
			c-0.1-0.1-0.2-0.2-0.2-0.2c0,4.1-4.1,8.4-8.5,9.8v0H37.2z"/>
		<polygon class="st18" points="35.1,47.1 35,47.1 35.1,47.1 		"/>
		<path class="st18" d="M42.6,72.5c-1.6-1.4-2.9-3-4-4.8c-1.4-2.3-2.2-4.9-2.5-7.6h-0.9c0,0,0,0,0,0h0c0.7,6.5,4.6,12.1,10,15.2
			l0.4-0.7C44.8,74.3,42.6,72.5,42.6,72.5z"/>
		<rect x="35.2" y="60.1" class="st18" width="0" height="0"/>
		<path class="st18" d="M35.9,47.7c0.4-0.2,0.9-0.4,1.3-0.6h-2.2v10.8c0,0.8,0.1,1.5,0.1,2.3H36c-0.1-0.8-0.1-1.5-0.1-2.3V47.7z"/>
		<path class="st18" d="M35.1,47.1L35.1,47.1l0,10.8c0,0.8,0.1,1.5,0.1,2.3h0c-0.1-0.7-0.1-1.5-0.1-2.3V47.1z"/>
		<path class="st18" d="M52.3,43c-4.8-2.1-7.3-4.3-8.3-5.2c-0.1-0.1-0.1-0.1-0.2-0.2c-0.5,1.5-0.9,3-1,4.6c0.7-1,1.1-2,1.4-3.1
			c1.3,1.1,3.5,2.7,6.9,4.3C51.6,43.6,52.1,43.4,52.3,43C52.3,43,52.3,43,52.3,43C52.3,43,52.3,43,52.3,43C52.3,43,52.3,43,52.3,43z
			"/>
		<path class="st18" d="M74.5,60.1c-0.3,2.7-1.2,5.3-2.5,7.6c-1.1,1.8-2.4,3.4-4,4.8c0,0-0.6,0.5-1.7,1.2l-0.9,1.7
			c5.4-3.1,9.2-8.7,10-15.2c-0.1,0-0.3,0-0.4-0.1H74.5z"/>
		<path class="st18" d="M54.1,43.7C54.1,43.7,54.1,43.7,54.1,43.7C54.1,43.7,54.1,43.7,54.1,43.7C54.1,43.7,54.1,43.7,54.1,43.7
			c-0.2,0.5,0.1,0.9,0.5,1.1c2.9,1,6,1.8,9.4,2.3h11.5c-8.7,0-15.3-1.3-20.2-3C54.9,44,54.5,43.8,54.1,43.7z"/>
		<path class="st18" d="M74.6,47.9v9.9c0,0.8-0.1,1.5-0.1,2.3h0.5c0.1,0,0.3,0.1,0.4,0.1c0.1-0.8,0.2-1.5,0.2-2.3V47.1H64
			C67.3,47.6,70.9,47.9,74.6,47.9z"/>
		<path class="st18" d="M59.1,24.2c2.1,0.4,4,1.1,5.8,2.1c0,0-0.1,0-0.1-0.1C63,25.3,61.1,24.6,59.1,24.2c-0.9-0.2-1.8-0.3-2.7-0.3
			c0,0,0,0,0,0C57.3,24,58.2,24.1,59.1,24.2z"/>
		<path class="st18" d="M56.4,23.9c-0.4,0-0.8-0.1-1.2-0.1C55.7,23.9,56,23.9,56.4,23.9C56.4,23.9,56.4,23.9,56.4,23.9z"/>
		<path class="st18" d="M69.6,29.8c3.7,3.7,5.9,8.7,5.9,14.3v3c0,0,0,0,0,0v-3C75.5,38.5,73.2,33.5,69.6,29.8
			c-1.4-1.4-3-2.6-4.8-3.5c0,0,0.1,0,0.1,0.1C66.6,27.3,68.2,28.4,69.6,29.8z"/>
		<path class="st18" d="M35.1,44.1v3c4.5-1.5,8.5-5.8,8.5-9.8l0,0c0,0,0,0,0,0c0,0,0.1,0.1,0.2,0.2c0,0,0,0,0,0
			c0.1-0.3,0.2-0.6,0.3-0.9c-0.2-0.2-0.6-0.3-0.9-0.2c-0.3,0.1-0.6,0.4-0.6,0.8c0,1.7-0.8,3.6-2.4,5.3c-1.2,1.4-2.8,2.5-4.5,3.3
			v-1.7c0-10.7,8.7-19.4,19.4-19.4c0.5,0,1.1,0,1.6,0.1c0,0,0,0,0,0c0,0,0,0,0,0c0.7-0.2,1.4-0.4,2.2-0.6c-0.9-0.2-1.8-0.3-2.7-0.3
			c-0.4,0-0.8-0.1-1.2-0.1c-3.5,0-6.8,0.9-9.6,2.4C39.3,29.7,35.1,36.4,35.1,44.1z"/>
		<rect x="56.9" y="24.8" class="st18" width="0" height="0"/>
		<path class="st18" d="M56.4,23.9c-0.4,0-0.8-0.1-1.2-0.1c-3.5,0-6.8,0.9-9.6,2.4c2.9-1.6,6.1-2.4,9.6-2.4
			C55.7,23.9,56,23.9,56.4,23.9z"/>
		<path class="st18" d="M43.6,37.3C43.6,37.3,43.6,37.3,43.6,37.3c0,0,0.1,0.1,0.2,0.2C43.7,37.4,43.6,37.3,43.6,37.3z"/>
		<path class="st18" d="M44,37.7c0.9,0.9,3.5,3.2,8.3,5.2c0.2-0.4,0-0.9-0.4-1.1c-2.8-1.3-4.7-2.6-5.9-3.5c-0.1-0.1-0.2-0.1-0.3-0.2
			c-1-0.8-1.5-1.4-1.5-1.4c0,0,0,0,0,0c0,0,0,0,0,0c0,0,0,0-0.1-0.1c0,0,0,0,0,0c0,0,0,0,0,0c-0.1,0.3-0.2,0.6-0.3,0.9
			C43.9,37.6,44,37.7,44,37.7z"/>
		<path class="st18" d="M44.3,36.7c0,0,0.5,0.6,1.5,1.4C44.8,37.3,44.3,36.8,44.3,36.7z"/>
		<path class="st18" d="M44.2,36.6C44.2,36.7,44.2,36.7,44.2,36.6C44.2,36.7,44.2,36.7,44.2,36.6C44.2,36.6,44.2,36.6,44.2,36.6z"/>
		<path class="st18" d="M52.3,43c-4.8-2.1-7.3-4.3-8.3-5.2C45,38.7,47.5,40.9,52.3,43C52.3,43,52.3,43,52.3,43z"/>
		<path class="st18" d="M69.6,29.8c-1.4-1.4-2.9-2.5-4.7-3.5c-1.8-1-3.7-1.7-5.8-2.1c-0.7,0.1-1.5,0.3-2.2,0.6
			c0.7,0.1,1.4,0.1,2,0.3c3.8,0.7,7.3,2.6,10,5.3c3.6,3.7,5.7,8.5,5.7,13.7v2.1c0,0,0,0,0,0v0c-3.5,0-6.9-0.3-10-0.8
			c-3.4-0.5-6.5-1.3-9.4-2.3c0,0-0.1,0-0.1,0c-0.4-0.1-0.8,0.1-0.9,0.5c0.4,0.1,0.8,0.3,1.2,0.4c4.9,1.7,11.5,3,20.2,3v-3
			C75.5,38.5,73.2,33.5,69.6,29.8z"/>
		<path class="st18" d="M58.9,25.1c3.8,0.7,7.3,2.6,10,5.3c3.7,3.7,5.7,8.5,5.7,13.7v2.1c0,0,0,0,0,0v-2.1c0-5.2-2-10-5.7-13.7
			C66.2,27.7,62.7,25.8,58.9,25.1c-0.7-0.1-1.3-0.2-2-0.3c0,0,0,0,0,0C57.6,24.9,58.3,25,58.9,25.1z"/>
		<path class="st18" d="M55,43.1c0,0,0.1,0,0.1,0c2.9,1,6,1.8,9.4,2.3c-3.4-0.5-6.5-1.3-9.4-2.3C55.1,43.1,55.1,43.2,55,43.1z"/>
		<path class="st18" d="M69.6,29.8c-1.4-1.4-2.9-2.5-4.7-3.5C66.6,27.3,68.2,28.4,69.6,29.8c3.7,3.7,5.9,8.7,5.9,14.3v3c0,0,0,0,0,0
			v-3C75.5,38.5,73.2,33.5,69.6,29.8z"/>
		<path class="st18" d="M55.3,44.1c-0.4-0.1-0.8-0.3-1.2-0.4c0,0,0,0,0,0C54.5,43.8,54.9,44,55.3,44.1z"/>
		<ellipse transform="matrix(-0.8 0.6 -0.6 -0.8 160.5748 98.8213)" class="st18" cx="63.8" cy="76.2" rx="0" ry="0"/>
		<path class="st18" d="M48,78.4C48,78.4,48,78.4,48,78.4C48,78.4,48,78.4,48,78.4z"/>
		<path class="st18" d="M47.4,78c-0.1-0.1-0.2-0.1-0.3-0.2C47.2,77.9,47.3,77.9,47.4,78z"/>
		<polygon class="st18" points="45.2,75.4 45.2,75.4 45.2,75.4 		"/>
		<path class="st18" d="M48.9,78.8C48.8,78.8,48.8,78.8,48.9,78.8C48.8,78.8,48.8,78.8,48.9,78.8z"/>
		<path class="st18" d="M50.7,79.3c-0.1,0-0.1,0-0.2,0C50.6,79.3,50.6,79.3,50.7,79.3z"/>
		<path class="st18" d="M49.8,79.1c-0.1,0-0.2,0-0.2-0.1C49.7,79.1,49.7,79.1,49.8,79.1z"/>
		<path class="st18" d="M46.6,77.3C46.6,77.3,46.6,77.3,46.6,77.3c0.1,0.1,0.3,0.3,0.5,0.4C46.9,77.6,46.8,77.5,46.6,77.3z"/>
		<polygon class="st18" points="45.2,75.4 45.2,75.4 45.2,75.4 		"/>
		<path class="st18" d="M60.1,76.2l-0.7,1.3c-0.2,0.3,4.6-1.6,4.4-1.3c0.5-0.2,1-0.5,1.5-0.8l0,0c0,0,0,0,0,0l0.9-1.7
			C65.8,74,63.1,75.5,60.1,76.2z"/>
		<path class="st18" d="M65.3,75.4L65.3,75.4c-0.5,0.3-1,0.5-1.5,0.8c0,0,0,0,0,0C64.3,75.9,64.8,75.7,65.3,75.4z"/>
		<path class="st18" d="M67.7,55.9c0.2-0.3,0-0.7-0.3-0.9l-1.6-0.9l1.6-0.9c0.3-0.2,0.4-0.6,0.3-0.9c-0.2-0.3-0.6-0.4-0.9-0.3
			l-2.8,1.4c-0.2,0.1-0.4,0.3-0.4,0.6c0,0.2,0.1,0.5,0.4,0.6l2.8,1.4c0.1,0.1,0.2,0.1,0.3,0.1C67.4,56.3,67.6,56.1,67.7,55.9z"/>
		<path class="st18" d="M43.9,55.9c0.1,0.2,0.3,0.4,0.6,0.4c0.1,0,0.2,0,0.3-0.1l2.8-1.4c0.2-0.1,0.4-0.3,0.4-0.6
			c0-0.2-0.1-0.5-0.4-0.6l-2.8-1.4c-0.3-0.2-0.7,0-0.9,0.3c-0.2,0.3,0,0.7,0.3,0.9l1.6,0.9L44.2,55C43.8,55.2,43.7,55.6,43.9,55.9z"
			/>
		<polygon class="st17" points="40.4,77.8 46.7,81.1 54.1,84.7 62.3,68.2 59.4,64.7 48,68.7 		"/>
		<g>
			<path class="st18" d="M62.9,66.3c-0.3-0.9-0.9-1.6-1.7-2c-2.3-1.2-6.7-0.3-11.4,2.3c-0.6,0.4-1.3,0.7-1.9,1.1
				c-0.9,0.5-1.7,1.1-2.5,1.8c-0.2,0.1-0.3,0.2-0.5,0.4L44.7,70L44,70.7l0,0l-0.8,0.7l-0.4,0.4c-1.9,1.9-3.5,4-4.6,6.2
				C38,78.3,38,78.7,38.3,79c0.2,0.3,0.6,0.5,1,0.5l3-0.1c0.3,0,0.8,0.2,1,0.5l1.7,2.4c0.6,0.8,1.8,1.4,2.8,1.4l0,0l3-0.1
				c0.3,0,0.8,0.2,1,0.5l1.7,2.4c0.2,0.3,0.6,0.5,0.9,0.5c0,0,0,0,0,0c0.4,0,0.7-0.3,0.9-0.6c0.7-1.3,1.4-2.6,2-3.9
				c0.3-0.6,0.7-1.3,1-1.9c0.2-0.3,0.3-0.6,0.5-0.9l0,0c0,0,0,0,0,0l0.4-0.9l0,0l0.4-0.7l0,0l0.4-0.8c0.1-0.1,0.1-0.3,0.2-0.4
				C62.3,72.3,63.6,68.7,62.9,66.3z M57.8,76.5c-0.2,0.5-0.4,0.9-0.7,1.4c-0.1,0.3-0.3,0.6-0.4,0.8l0,0c-0.1,0.3-0.3,0.5-0.4,0.8
				c-0.1,0.3-0.3,0.5-0.4,0.8c-0.2,0.4-0.4,0.7-0.6,1.1c-0.4,0.8-0.8,1.5-1.2,2.3l-0.7-0.9c-0.6-0.8-1.8-1.4-2.8-1.4l-3,0.1
				c-0.1,0-0.2,0-0.4-0.1c-0.2-0.1-0.5-0.3-0.6-0.4l-1.7-2.4c-0.6-0.8-1.8-1.4-2.8-1.4l-1,0c0.8-1.2,1.8-2.5,2.9-3.6
				c0.2-0.2,0.4-0.4,0.6-0.6c0.2-0.2,0.4-0.4,0.7-0.6c0,0,0.1-0.1,0.2-0.1c0.6-0.5,1.1-1,1.8-1.4c0.5-0.4,1-0.8,1.6-1.1
				c0.7-0.4,1.3-0.9,2-1.2c4.4-2.4,8-2.9,9.4-2.2c0.3,0.2,0.5,0.4,0.6,0.8C61.4,68.7,59.9,72.4,57.8,76.5z"/>
			<path class="st18" d="M57.2,70.9c-1.9,0.5-3.9,1.5-5.8,2.8c0,0,0,0-0.1,0c0,0-0.1,0-0.1,0.1c-0.2,0.1-0.4,0.2-0.6,0.2
				c-0.4,0-0.7-0.2-0.9-0.5c-0.2-0.3-0.2-0.6-0.1-0.9c0.1-0.2,0.2-0.5,0.4-0.6c0,0,0,0,0.1,0c2.1-1.4,4.4-2.5,6.6-3.1
				c0.6-0.2,1.2,0.2,1.4,0.8C58.1,70.1,57.7,70.7,57.2,70.9z"/>
		</g>
	</g>
</g>
</svg>
