<?xml version="1.0" encoding="utf-8"?>
<!-- Generator: Adobe Illustrator 19.1.0, SVG Export Plug-In . SVG Version: 6.00 Build 0)  -->
<svg version="1.1" id="Layer_1" xmlns="http://www.w3.org/2000/svg" xmlns:xlink="http://www.w3.org/1999/xlink" x="0px" y="0px"
	 viewBox="0 0 110 110" style="enable-background:new 0 0 110 110;" xml:space="preserve">
<style type="text/css">
	.st0{opacity:0.2;fill:#23A9E1;}
	.st1{fill:#65C6BB;}
	.st2{fill:#23A9E1;}
	.st3{fill:#183A63;}
	.st4{fill:#FCD0A5;}
	.st5{fill:#4297D3;}
	.st6{fill:#2A1D1D;}
	.st7{fill:#F0B98A;}
	.st8{fill:#F15C57;}
	.st9{fill:#F2F4F6;}
	.st10{fill:#DFEAEE;}
	.st11{fill:#764830;}
	.st12{fill:#5E3827;}
	.st13{fill:#156299;}
	.st14{fill:#3E8BC8;}
	.st15{opacity:0.2;fill:#25A6DF;}
	.st16{fill:#25A6DF;}
	.st17{fill:#66C6BB;}
	.st18{fill:#1A3B63;}
	.st19{fill:#FACEA4;}
	.st20{fill:#4296D2;}
	.st21{fill:#2B1C1D;}
	.st22{fill:#EFB888;}
	.st23{fill:#F15E57;}
	.st24{fill:#F2F4F5;}
	.st25{fill:#DDE8ED;}
	.st26{fill:none;}
</style>
<g>
	<circle class="st15" cx="55" cy="55" r="53.7"/>
	<g>
		<polygon class="st16" points="83.9,81 25.6,81 25.6,49.8 39.7,49.8 39.7,40.1 70.4,40.1 70.4,49.8 83.9,49.8 		"/>
		<rect x="43.4" y="46.7" class="st17" width="4.3" height="9.3"/>
		<rect x="25.1" y="46.8" class="st17" width="13.7" height="1.7"/>
		<rect x="71.2" y="45.9" class="st17" width="13.7" height="3.1"/>
		<rect x="52.7" y="46.7" class="st17" width="4.2" height="9.3"/>
		<rect x="46.9" y="25.1" class="st17" width="16.6" height="11.6"/>
		<rect x="37.3" y="36.7" class="st16" width="34.8" height="3"/>
		<rect x="24.7" y="82.1" class="st17" width="61.5" height="3"/>
		<rect x="62.4" y="46.8" class="st17" width="4.2" height="9.3"/>
		<rect x="31.3" y="60.9" class="st17" width="4.3" height="9.3"/>
		<rect x="46.7" y="66.9" class="st17" width="16.8" height="14.3"/>
		<rect x="75.1" y="61.1" class="st17" width="4.2" height="9.3"/>
		<g>
			<path class="st18" d="M48,57.3c0.5,0,0.9-0.4,0.9-0.9v-9.9c0-0.5-0.4-0.9-0.9-0.9h-5c-0.5,0-0.9,0.4-0.9,0.9v9.9
				c0,0.5,0.4,0.9,0.9,0.9H48z M44,47.5h3.1v8H44V47.5z"/>
			<path class="st18" d="M52.5,57.3h5c0.5,0,0.9-0.4,0.9-0.9v-9.9c0-0.5-0.4-0.9-0.9-0.9h-5c-0.5,0-0.9,0.4-0.9,0.9v9.9
				C51.6,56.9,52,57.3,52.5,57.3z M53.4,47.5h3.1v8h-3.1V47.5z"/>
			<path class="st18" d="M35.3,71.5c0.5,0,0.9-0.4,0.9-0.9v-9.9c0-0.5-0.4-0.9-0.9-0.9h-5c-0.5,0-0.9,0.4-0.9,0.9v9.9
				c0,0.5,0.4,0.9,0.9,0.9H35.3z M31.3,61.7h3.1v8h-3.1V61.7z"/>
			<path class="st18" d="M74.7,71.5h5c0.5,0,0.9-0.4,0.9-0.9v-9.9c0-0.5-0.4-0.9-0.9-0.9h-5c-0.5,0-0.9,0.4-0.9,0.9v9.9
				C73.8,71.1,74.2,71.5,74.7,71.5z M75.6,61.7h3.1v8h-3.1V61.7z"/>
			<path class="st18" d="M62,57.3h5c0.5,0,0.9-0.4,0.9-0.9v-9.9c0-0.5-0.4-0.9-0.9-0.9h-5c-0.5,0-0.9,0.4-0.9,0.9v9.9
				C61,56.9,61.5,57.3,62,57.3z M62.9,47.5H66v8h-3.1V47.5z"/>
			<path class="st18" d="M54.1,33.5c0,0.5,0.4,0.9,0.9,0.9s0.9-0.4,0.9-0.9v-1.9h1.9c0.5,0,0.9-0.4,0.9-0.9s-0.4-0.9-0.9-0.9h-1.9
				v-1.9c0-0.5-0.4-0.9-0.9-0.9s-0.9,0.4-0.9,0.9v1.9h-1.9c-0.5,0-0.9,0.4-0.9,0.9s0.4,0.9,0.9,0.9h1.9V33.5z"/>
			<path class="st18" d="M85.4,50.4c0.5,0,0.9-0.4,0.9-0.9v-3.3c0-0.5-0.4-0.9-0.9-0.9h-5.6c-0.5,0-0.9,0.4-0.9,0.9s0.4,0.9,0.9,0.9
				h4.6v1.5c-1.6,0-12.6,0-13.2,0v-1.5h4c0.5,0,0.9-0.4,0.9-0.9s-0.4-0.9-0.9-0.9h-4V41h1.4c0.5,0,0.9-0.4,0.9-0.9v-3.3
				c0-0.5-0.4-0.9-0.9-0.9h-8.2V24.6c0-0.5-0.4-0.9-0.9-0.9H46.5c-0.5,0-0.9,0.4-0.9,0.9v11.2h-8.2c-0.5,0-0.9,0.4-0.9,0.9v3.3
				c0,0.5,0.4,0.9,0.9,0.9h1.4v4.3H24.6c-0.5,0-0.9,0.4-0.9,0.9v3.3c0,0.5,0.4,0.9,0.9,0.9H25v6c0,0.5,0.4,0.9,0.9,0.9
				s0.9-0.4,0.9-0.9v-6h11.9V81H26.9V61c0-0.5-0.4-0.9-0.9-0.9S25,60.5,25,61v20h-0.4c-0.5,0-0.9,0.4-0.9,0.9v3.5
				c0,0.5,0.4,0.9,0.9,0.9h60.7c0.5,0,0.9-0.4,0.9-0.9v-3.5c0-0.5-0.4-0.9-0.9-0.9H85V50.4H85.4z M38.3,37.7h14.2
				c0.5,0,0.9-0.4,0.9-0.9c0-0.5-0.4-0.9-0.9-0.9h-5.2V25.6h15.2v10.3h-4.9c-0.5,0-0.9,0.4-0.9,0.9c0,0.5,0.4,0.9,0.9,0.9h14v1.5
				H38.3V37.7z M25.6,47.1h13.2v1.5H25.6V47.1z M40.6,41h28.8v40h-5.3V66.5c0-0.5-0.4-0.9-0.9-0.9H46.8c-0.5,0-0.9,0.4-0.9,0.9V81
				h-5.3V41z M47.7,81V67.4h6.4V81H47.7z M55.9,67.4h6.4V81h-6.4V67.4z M84.4,84.4H25.6v-1.6h58.9V84.4z M83.1,81H71.2V50.4h11.9
				L83.1,81L83.1,81z"/>
		</g>
	</g>
</g>
</svg>
